<svg width="200" height="200" viewBox="0 0 200 200" fill="none" xmlns="http://www.w3.org/2000/svg">
<g clip-path="url(#clip0_4204_5)">
<path d="M25 6H175C185.475 6 194 14.5246 194 25V137.5C194 147.975 185.475 156.5 175 156.5H116.75L115.149 157.7L68.5 192.696V156.5H25C14.5246 156.5 6 147.975 6 137.5V25C6 14.5246 14.5246 6 25 6Z" stroke="white" stroke-width="12" stroke-miterlimit="14.0378"/>
<path d="M83.42 105.775V111.85H82.07V105.775C82.07 103.795 82.115 101.95 82.205 100.24C82.385 98.44 83.015 96.82 84.095 95.38L100.295 73.24L84.095 51.37C83.105 49.93 82.52 48.355 82.34 46.645C82.16 44.845 82.07 42.955 82.07 40.975V38.95H83.42V40.975C83.42 42.865 83.51 44.665 83.69 46.375C83.87 48.085 84.41 49.57 85.31 50.83L101.51 72.7H117.575L133.235 50.83C134.135 49.57 134.675 48.085 134.855 46.375C135.035 44.665 135.125 42.865 135.125 40.975V38.95H136.475V40.975C136.475 42.955 136.385 44.845 136.205 46.645C136.025 48.355 135.44 49.93 134.45 51.37L118.52 73.51L134.45 95.38C135.44 96.82 136.025 98.44 136.205 100.24C136.385 101.95 136.475 103.795 136.475 105.775V111.85H135.125V105.775C135.125 103.885 135.035 102.085 134.855 100.375C134.675 98.665 134.135 97.18 133.235 95.92L117.44 74.05H101.24L85.31 95.92C84.41 97.09 83.87 98.575 83.69 100.375C83.51 102.085 83.42 103.885 83.42 105.775ZM97.865 119.14V105.775C97.865 104.875 97.91 103.93 98 102.94C98.09 101.95 98.45 101.005 99.08 100.105L105.155 91.6C105.695 90.79 106.19 90.205 106.64 89.845C107.09 89.485 107.675 89.305 108.395 89.305H110.285C111.005 89.305 111.59 89.485 112.04 89.845C112.49 90.205 112.985 90.79 113.525 91.6L119.465 100.105C120.095 101.005 120.455 101.95 120.545 102.94C120.635 103.93 120.68 104.875 120.68 105.775V119.14C120.68 120.85 121.04 122.11 121.76 122.92C122.57 123.64 123.83 124 125.54 124H146.06C147.77 124 148.985 123.64 149.705 122.92C150.515 122.11 150.92 120.85 150.92 119.14V104.695C150.92 100.555 150.56 97.45 149.84 95.38C149.21 93.31 147.86 90.88 145.79 88.09L134.855 73.51L145.79 58.66C147.77 55.87 149.12 53.44 149.84 51.37C150.56 49.3 150.92 46.195 150.92 42.055V31.66C150.92 29.95 150.515 28.735 149.705 28.015C148.985 27.205 147.77 26.8 146.06 26.8H125.54C123.83 26.8 122.57 27.205 121.76 28.015C121.04 28.735 120.68 29.95 120.68 31.66V40.975C120.68 41.875 120.635 42.82 120.545 43.81C120.455 44.8 120.095 45.745 119.465 46.645L113.39 55.15C112.85 55.87 112.355 56.455 111.905 56.905C111.455 57.265 110.87 57.445 110.15 57.445H108.53C107.81 57.445 107.18 57.265 106.64 56.905C106.19 56.455 105.74 55.87 105.29 55.15L99.35 46.645C98.72 45.745 98.36 44.8 98.27 43.81C98.18 42.82 98.135 41.875 98.135 40.975V31.66C98.135 29.95 97.73 28.735 96.92 28.015C96.2 27.205 94.985 26.8 93.275 26.8H72.485C70.775 26.8 69.515 27.205 68.705 28.015C67.985 28.735 67.625 29.95 67.625 31.66V42.055C67.625 46.195 67.94 49.3 68.57 51.37C69.29 53.44 70.685 55.87 72.755 58.66L83.69 73.375L72.755 88.09C70.775 90.88 69.425 93.31 68.705 95.38C67.985 97.45 67.625 100.555 67.625 104.695V119.14C67.625 120.85 67.985 122.11 68.705 122.92C69.515 123.64 70.775 124 72.485 124H93.005C94.715 124 95.93 123.64 96.65 122.92C97.46 122.11 97.865 120.85 97.865 119.14ZM97.325 124.135L79.775 138.715C79.415 139.075 78.83 139.39 78.02 139.66C77.3 139.93 76.49 140.065 75.59 140.065H55.07C52.91 140.065 51.335 139.57 50.345 138.58C49.355 137.59 48.86 136.015 48.86 133.855V119.41C48.86 115 49.22 111.715 49.94 109.555C50.66 107.395 52.1 104.875 54.26 101.995L64.655 88.09L54.26 74.185C52.1 71.305 50.66 68.785 49.94 66.625C49.22 64.465 48.86 61.18 48.86 56.77V46.375C48.86 45.205 48.995 44.215 49.265 43.405C49.625 42.595 50.12 41.92 50.75 41.38L68.165 26.665C68.615 26.305 69.2 26.035 69.92 25.855C70.73 25.585 71.585 25.45 72.485 25.45H93.275C95.435 25.45 97.01 25.945 98 26.935C98.99 27.925 99.485 29.5 99.485 31.66V40.975C99.485 41.785 99.485 42.64 99.485 43.54C99.575 44.35 99.89 45.115 100.43 45.835L101.915 47.995V46.375C101.915 45.205 102.05 44.215 102.32 43.405C102.68 42.595 103.175 41.92 103.805 41.38L121.22 26.665C121.67 26.305 122.255 26.035 122.975 25.855C123.785 25.585 124.64 25.45 125.54 25.45H146.06C148.22 25.45 149.795 25.945 150.785 26.935C151.775 27.925 152.27 29.5 152.27 31.66V42.055C152.27 46.465 151.91 49.75 151.19 51.91C150.47 54.07 149.03 56.59 146.87 59.47L136.475 73.51L146.87 87.28C149.03 90.16 150.47 92.68 151.19 94.84C151.91 97 152.27 100.285 152.27 104.695V119.14C152.27 120.31 152.09 121.3 151.73 122.11C151.46 122.92 151.01 123.595 150.38 124.135L132.83 138.715C132.47 139.075 131.885 139.39 131.075 139.66C130.355 139.93 129.545 140.065 128.645 140.065H108.125C105.965 140.065 104.39 139.57 103.4 138.58C102.41 137.59 101.915 136.015 101.915 133.855V120.49C101.915 119.68 101.87 118.87 101.78 118.06C101.78 117.25 101.51 116.44 100.97 115.63L99.215 113.2V119.14C99.215 120.31 99.035 121.3 98.675 122.11C98.405 122.92 97.955 123.595 97.325 124.135Z" fill="white"/>
</g>
<defs>
<clipPath id="clip0_4204_5">
<rect width="200" height="200" fill="white"/>
</clipPath>
</defs>
</svg>
